<svg width="80" height="80" viewBox="0 0 80 80" fill="none" xmlns="http://www.w3.org/2000/svg">
<circle cx="40" cy="40" r="28" stroke="black" stroke-width="4"/>
<path fill-rule="evenodd" clip-rule="evenodd" d="M40.0502 51.9082H40.0453C38.0453 51.9075 36.0802 51.4057 34.3348 50.4537L28 52.1154L29.6953 45.9232C28.6496 44.1109 28.0993 42.0552 28.1002 39.9491C28.1028 33.3604 33.4635 28 40.0501 28C43.2468 28.0014 46.2472 29.2459 48.5033 31.5046C50.7594 33.7633 52.0013 36.7656 52 39.9585C51.9974 46.5457 46.6388 51.9055 40.0502 51.9082ZM45.6628 42.5312C45.8711 42.6318 46.0117 42.6998 46.0718 42.8C46.1464 42.9245 46.1464 43.5223 45.8977 44.2199C45.6488 44.9174 44.4559 45.5539 43.8822 45.6396C43.3678 45.7165 42.7168 45.7486 42.0016 45.5213C41.5679 45.3837 41.0118 45.2 40.2994 44.8923C37.5002 43.6837 35.6086 40.9707 35.251 40.4579C35.226 40.422 35.2085 40.3969 35.1987 40.3838L35.1963 40.3806C35.0383 40.1698 33.9795 38.7571 33.9795 37.295C33.9795 35.9197 34.6551 35.1988 34.9661 34.867C34.9874 34.8442 35.007 34.8233 35.0245 34.8041C35.2982 34.5052 35.6217 34.4305 35.8207 34.4305C36.0198 34.4305 36.219 34.4323 36.393 34.4411C36.4145 34.4421 36.4368 34.442 36.4599 34.4419C36.6339 34.4408 36.8508 34.4396 37.0648 34.9536C37.1471 35.1514 37.2676 35.4447 37.3947 35.7541C37.6516 36.3796 37.9355 37.0706 37.9854 37.1706C38.0601 37.3201 38.1098 37.4944 38.0103 37.6938C37.9954 37.7237 37.9815 37.7519 37.9683 37.7788C37.8936 37.9314 37.8386 38.0437 37.7117 38.1918C37.6618 38.2501 37.6103 38.3129 37.5587 38.3757C37.456 38.5008 37.3533 38.6259 37.2638 38.715C37.1144 38.8639 36.9588 39.0254 37.1329 39.3243C37.3071 39.6233 37.9063 40.601 38.794 41.3927C39.7481 42.2438 40.5774 42.6035 40.9978 42.7859C41.0799 42.8215 41.1464 42.8503 41.1952 42.8747C41.4936 43.0243 41.6678 42.9992 41.842 42.8C42.0162 42.6008 42.5884 41.9281 42.7874 41.6293C42.9864 41.3304 43.1856 41.3802 43.4592 41.4798C43.733 41.5795 45.201 42.3018 45.4995 42.4512C45.5578 42.4804 45.6123 42.5068 45.6628 42.5312Z" fill="black"/>
</svg>
