<?xml version="1.0" standalone="no"?>
<!DOCTYPE svg PUBLIC "-//W3C//DTD SVG 20010904//EN"
 "http://www.w3.org/TR/2001/REC-SVG-20010904/DTD/svg10.dtd">
<svg version="1.0" xmlns="http://www.w3.org/2000/svg"
 width="1200.000000pt" height="600.000000pt" viewBox="0 0 1200.000000 600.000000"
 preserveAspectRatio="xMidYMid meet">

<g transform="translate(0.000000,600.000000) scale(0.100000,-0.100000)"
fill="#000000" stroke="none">
<path d="M1375 5845 c-60 -29 -82 -47 -122 -103 -51 -70 -56 -112 -44 -364 6
-123 14 -266 17 -319 l6 -95 -198 -68 c-689 -236 -943 -399 -922 -590 25 -217
324 -351 1006 -451 90 -13 166 -26 169 -28 2 -3 13 -159 24 -348 22 -376 24
-359 -41 -359 -57 0 -300 -38 -386 -60 -222 -57 -321 -157 -300 -306 21 -155
144 -263 583 -515 101 -57 192 -111 202 -119 20 -16 15 58 91 -1315 29 -520
34 -590 42 -550 4 22 19 254 33 515 41 754 65 1163 70 1168 6 6 76 -30 215
-112 69 -40 287 -167 485 -281 198 -115 369 -216 380 -225 26 -23 100 -60 119
-60 22 0 46 28 46 54 0 30 -4 33 -420 271 -190 109 -403 232 -475 275 -71 43
-173 102 -226 133 -52 30 -101 63 -108 71 -11 14 -9 98 13 498 15 265 28 483
29 485 2 1 95 9 208 18 501 38 733 89 842 185 56 49 77 93 77 159 0 67 -21
116 -73 169 -114 117 -391 206 -854 273 l-153 23 0 45 c1 116 60 1105 67 1111
4 4 58 24 118 45 305 104 485 206 521 292 20 46 17 140 -5 188 -24 54 -86 108
-157 136 -84 33 -274 33 -387 1 -42 -12 -79 -22 -81 -22 -2 0 -18 24 -34 54
-57 99 -140 146 -261 146 -49 0 -79 -6 -116 -25z m200 -144 c17 -9 39 -34 50
-55 l20 -38 -40 -31 c-70 -55 -144 -135 -151 -163 -6 -21 -2 -31 16 -46 12
-10 27 -18 32 -18 6 0 33 25 61 55 27 30 54 55 58 55 14 0 10 -44 -15 -162
-32 -152 -56 -217 -88 -241 -34 -25 -48 -16 -76 51 -44 102 -101 426 -88 497
4 19 21 51 38 70 48 56 114 65 183 26z m655 -108 c69 -31 100 -73 100 -138 0
-49 -3 -55 -42 -90 -23 -21 -82 -57 -132 -80 -108 -51 -364 -147 -374 -141 -4
2 -2 97 3 211 11 236 1 214 117 245 98 27 261 23 328 -7z m-985 -885 c4 -79
15 -282 24 -453 10 -170 14 -313 11 -317 -6 -8 -327 39 -460 67 -359 75 -554
164 -600 275 -44 107 100 229 434 369 138 57 540 200 567 200 14 1 18 -20 24
-141z m712 -973 c347 -58 556 -120 651 -193 58 -43 69 -58 81 -101 40 -137
-186 -224 -692 -266 -100 -8 -215 -17 -254 -21 l-73 -6 0 39 c0 21 7 151 15
288 8 138 15 260 15 273 0 29 6 29 257 -13z m-617 -754 c0 -22 9 -196 20 -387
11 -191 18 -349 16 -352 -7 -6 -353 192 -466 266 -192 127 -269 253 -211 349
24 38 114 83 221 108 102 25 292 53 363 54 l57 1 0 -39z"/>
<path d="M6675 5055 c-30 -29 -33 -89 -10 -241 26 -180 87 -1806 101 -2689 7
-447 7 -450 68 -523 30 -34 55 -39 103 -21 69 26 94 68 134 232 63 255 133
445 249 679 144 289 279 486 454 666 171 176 318 273 474 313 206 53 312 -7
312 -176 0 -243 -156 -607 -389 -905 -215 -276 -491 -502 -790 -647 -184 -90
-241 -144 -241 -233 0 -84 45 -130 126 -130 118 0 375 174 696 471 326 302
634 740 747 1062 66 189 75 238 76 417 0 138 -3 172 -18 205 -30 68 -67 113
-121 149 -65 43 -120 58 -215 57 -307 -2 -719 -306 -1044 -769 -144 -205 -292
-468 -349 -620 -17 -46 -22 -53 -28 -36 -37 99 -69 1017 -70 1989 0 529 -4
574 -54 673 -37 73 -76 102 -137 102 -40 0 -55 -5 -74 -25z"/>
<path d="M3046 3939 c-38 -30 -66 -91 -66 -144 0 -25 13 -152 29 -283 45 -356
72 -732 132 -1832 14 -269 26 -379 40 -396 7 -9 31 -14 71 -14 110 0 129 29
243 360 119 348 258 731 356 981 216 553 321 766 438 900 61 69 99 91 149 87
32 -3 39 -9 59 -48 40 -81 48 -189 47 -670 0 -247 -8 -604 -17 -803 -23 -488
-23 -547 4 -581 18 -22 28 -26 76 -26 51 0 58 3 94 39 25 25 39 48 39 64 0 15
34 145 75 289 262 914 470 1440 630 1587 54 50 86 59 131 37 154 -73 226 -563
243 -1646 5 -335 10 -461 19 -477 23 -42 109 -47 166 -10 13 9 31 33 41 54 17
35 18 62 12 369 -22 1091 -134 1703 -350 1901 -82 74 -163 91 -244 52 -110
-53 -224 -220 -338 -494 -93 -224 -256 -700 -362 -1054 l-28 -94 0 659 c0 582
-2 671 -18 764 -37 222 -68 304 -138 363 -128 110 -297 19 -460 -250 -156
-257 -423 -912 -672 -1648 l-92 -270 -7 135 c-3 74 -11 281 -17 460 -23 656
-54 1163 -86 1410 -17 131 -43 192 -95 228 -41 28 -70 28 -104 1z"/>
<path d="M9442 3939 c-109 -54 -176 -221 -198 -491 l-6 -77 -31 -5 c-18 -3
-61 -7 -97 -10 -45 -4 -69 -11 -77 -23 -18 -24 -16 -47 7 -68 20 -18 61 -18
171 1 l36 6 7 -83 c3 -46 11 -193 16 -327 6 -134 15 -252 20 -262 15 -28 41
-39 69 -29 l24 10 -8 277 c-5 152 -9 313 -9 356 l-1 80 105 17 c82 13 117 14
158 6 68 -13 85 1 86 70 l1 48 -42 3 c-23 2 -104 -9 -179 -23 -75 -14 -137
-25 -138 -23 -9 12 16 219 33 282 27 97 42 127 81 160 48 40 103 36 145 -9 18
-19 40 -54 47 -77 27 -81 82 -56 82 37 1 45 -4 59 -30 91 -66 82 -180 108
-272 63z"/>
<path d="M10257 3918 c-36 -28 -40 -65 -49 -527 -10 -467 -6 -547 27 -597 17
-26 49 -31 90 -12 30 14 31 28 4 104 -20 56 -21 72 -15 369 3 171 10 380 16
465 13 174 7 210 -33 210 -13 0 -31 -6 -40 -12z"/>
<path d="M9795 3868 c-45 -26 -47 -66 -4 -102 49 -41 130 -33 129 14 -1 18
-34 58 -70 83 -29 20 -29 20 -55 5z"/>
<path d="M9821 3548 c-8 -26 2 -365 19 -588 17 -218 31 -255 90 -230 36 15 37
32 15 185 -9 64 -15 184 -15 335 0 291 -6 319 -73 320 -20 0 -30 -6 -36 -22z"/>
<path d="M10860 3561 c-191 -63 -340 -292 -342 -526 -2 -136 40 -212 142 -258
63 -29 167 -28 237 3 104 44 225 206 263 349 10 36 9 46 -3 59 -21 20 -30 12
-77 -76 -91 -169 -162 -231 -273 -239 -119 -8 -172 47 -172 177 0 122 1 123
100 149 173 46 322 141 346 220 15 50 -7 103 -52 126 -37 20 -132 28 -169 16z
m105 -105 c25 -18 15 -39 -42 -80 -45 -33 -162 -85 -226 -100 l-28 -7 17 32
c23 46 102 127 144 149 41 23 109 26 135 6z"/>
<path d="M9688 2347 c-58 -44 -108 -113 -162 -222 -85 -173 -131 -370 -107
-457 17 -61 63 -115 108 -127 43 -12 112 1 158 29 58 36 231 232 272 307 16
30 16 34 1 49 -22 22 -35 13 -111 -82 -152 -188 -282 -252 -318 -157 -33 88
88 435 188 538 36 38 78 59 94 49 5 -3 9 -20 9 -39 0 -49 16 -85 39 -85 42 0
55 119 20 176 -26 43 -47 54 -103 54 -35 0 -54 -7 -88 -33z"/>
<path d="M10835 2360 c-19 -21 -20 -6 5 -250 5 -58 17 -217 25 -354 15 -259
16 -266 61 -266 35 0 59 39 104 170 101 294 193 508 238 557 44 48 47 29 47
-324 0 -317 1 -326 20 -333 28 -10 63 5 74 32 5 13 21 68 36 123 68 248 154
463 195 485 16 8 22 6 35 -13 24 -37 45 -214 53 -446 8 -232 10 -241 64 -228
47 12 52 45 39 268 -16 287 -53 450 -114 507 -36 33 -83 33 -124 -2 -52 -44
-114 -195 -157 -381 l-23 -100 0 200 c1 223 -10 303 -49 341 -76 77 -170 -21
-274 -287 -42 -106 -110 -328 -110 -357 0 -8 -2 -13 -5 -11 -2 3 -9 108 -15
235 -19 392 -30 454 -84 454 -12 0 -31 -9 -41 -20z"/>
<path d="M10250 2268 c-37 -26 -100 -125 -131 -207 -64 -171 -81 -342 -42
-417 45 -86 114 -119 227 -112 92 6 171 43 241 113 73 74 117 164 116 243 0
77 -16 109 -101 197 -38 39 -70 79 -72 90 -4 27 -74 33 -117 10 -48 -24 -42
-55 21 -107 97 -80 155 -143 160 -175 17 -115 -123 -263 -250 -263 -54 0 -107
22 -122 51 -16 29 -14 141 5 212 21 81 76 192 135 272 55 77 59 89 31 105 -31
16 -65 12 -101 -12z"/>
<path d="M9152 1740 c-38 -16 -48 -52 -27 -107 19 -51 50 -100 75 -120 21 -17
76 -16 94 3 25 25 0 104 -56 176 -48 62 -49 62 -86 48z"/>
</g>
</svg>
